<?xml version="1.0" encoding="UTF-8" standalone="no"?> <svg width="64" height="64" viewBox="0 0 64 64" fill="none" xmlns="http://www.w3.org/2000/svg">
<path d="M60 2H56C55.4696 2 54.9609 2.21071 54.5858 2.58579C54.2107 2.96086 54 3.46957 54 4C54 4.53043 54.2107 5.03914 54.5858 5.41421C54.9609 5.78929 55.4696 6 56 6H58V12.93H50.83V9.27C50.83 8.73957 50.6193 8.23086 50.2442 7.85579C49.8691 7.48071 49.3604 7.27 48.83 7.27C48.2996 7.27 47.7909 7.48071 47.4158 7.85579C47.0407 8.23086 46.83 8.73957 46.83 9.27V12.93H38.83V9.27C38.83 8.73957 38.6193 8.23086 38.2442 7.85579C37.8691 7.48071 37.3604 7.27 36.83 7.27C36.2996 7.27 35.7909 7.48071 35.4158 7.85579C35.0407 8.23086 34.83 8.73957 34.83 9.27V12.93H21.21V9.27C21.21 8.73957 20.9993 8.23086 20.6242 7.85579C20.2491 7.48071 19.7404 7.27 19.21 7.27C18.6796 7.27 18.1709 7.48071 17.7958 7.85579C17.4207 8.23086 17.21 8.73957 17.21 9.27V12.93H6V6H8C8.53043 6 9.03914 5.78929 9.41421 5.41421C9.78929 5.03914 10 4.53043 10 4C10 3.46957 9.78929 2.96086 9.41421 2.58579C9.03914 2.21071 8.53043 2 8 2H4C3.46957 2 2.96086 2.21071 2.58579 2.58579C2.21071 2.96086 2 3.46957 2 4V60C2 60.5304 2.21071 61.0391 2.58579 61.4142C2.96086 61.7893 3.46957 62 4 62H8C8.53043 62 9.03914 61.7893 9.41421 61.4142C9.78929 61.0391 10 60.5304 10 60C10 59.4696 9.78929 58.9609 9.41421 58.5858C9.03914 58.2107 8.53043 58 8 58H6V51.07H17.21V54.73C17.21 55.2604 17.4207 55.7691 17.7958 56.1442C18.1709 56.5193 18.6796 56.73 19.21 56.73C19.7404 56.73 20.2491 56.5193 20.6242 56.1442C20.9993 55.7691 21.21 55.2604 21.21 54.73V51.07H31.45V54.73C31.45 55.2604 31.6607 55.7691 32.0358 56.1442C32.4109 56.5193 32.9196 56.73 33.45 56.73C33.9804 56.73 34.4891 56.5193 34.8642 56.1442C35.2393 55.7691 35.45 55.2604 35.45 54.73V51.07H38.13V54.73C38.13 55.2604 38.3407 55.7691 38.7158 56.1442C39.0909 56.5193 39.5996 56.73 40.13 56.73C40.6604 56.73 41.1691 56.5193 41.5442 56.1442C41.9193 55.7691 42.13 55.2604 42.13 54.73V51.07H58V58H56C55.4696 58 54.9609 58.2107 54.5858 58.5858C54.2107 58.9609 54 59.4696 54 60C54 60.5304 54.2107 61.0391 54.5858 61.4142C54.9609 61.7893 55.4696 62 56 62H60C60.5304 62 61.0391 61.7893 61.4142 61.4142C61.7893 61.0391 62 60.5304 62 60V4C62 3.46957 61.7893 2.96086 61.4142 2.58579C61.0391 2.21071 60.5304 2 60 2ZM17.21 16.93V20.59C17.21 21.1204 17.4207 21.6291 17.7958 22.0042C18.1709 22.3793 18.6796 22.59 19.21 22.59C19.7404 22.59 20.2491 22.3793 20.6242 22.0042C20.9993 21.6291 21.21 21.1204 21.21 20.59V16.93H34.83V20.59C34.83 21.1204 35.0407 21.6291 35.4158 22.0042C35.7909 22.3793 36.2996 22.59 36.83 22.59C37.3604 22.59 37.8691 22.3793 38.2442 22.0042C38.6193 21.6291 38.83 21.1204 38.83 20.59V16.93H46.83V20.59C46.83 21.1204 47.0407 21.6291 47.4158 22.0042C47.7909 22.3793 48.2996 22.59 48.83 22.59C49.3604 22.59 49.8691 22.3793 50.2442 22.0042C50.6193 21.6291 50.83 21.1204 50.83 20.59V16.93H58V30.49H50.83V26.83C50.83 26.2996 50.6193 25.7909 50.2442 25.4158C49.8691 25.0407 49.3604 24.83 48.83 24.83C48.2996 24.83 47.7909 25.0407 47.4158 25.4158C47.0407 25.7909 46.83 26.2996 46.83 26.83V30.49H26.75V26.83C26.75 26.2996 26.5393 25.7909 26.1642 25.4158C25.7891 25.0407 25.2804 24.83 24.75 24.83C24.2196 24.83 23.7109 25.0407 23.3358 25.4158C22.9607 25.7909 22.75 26.2996 22.75 26.83V30.49H14.1V26.83C14.1 26.2996 13.8893 25.7909 13.5142 25.4158C13.1391 25.0407 12.6304 24.83 12.1 24.83C11.5696 24.83 11.0609 25.0407 10.6858 25.4158C10.3107 25.7909 10.1 26.2996 10.1 26.83V30.49H6V16.93H17.21ZM42.13 47.07V43.41C42.13 42.8796 41.9193 42.3709 41.5442 41.9958C41.1691 41.6207 40.6604 41.41 40.13 41.41C39.5996 41.41 39.0909 41.6207 38.7158 41.9958C38.3407 42.3709 38.13 42.8796 38.13 43.41V47.07H35.45V43.41C35.45 42.8796 35.2393 42.3709 34.8642 41.9958C34.4891 41.6207 33.9804 41.41 33.45 41.41C32.9196 41.41 32.4109 41.6207 32.0358 41.9958C31.6607 42.3709 31.45 42.8796 31.45 43.41V47.07H21.21V43.41C21.21 42.8796 20.9993 42.3709 20.6242 41.9958C20.2491 41.6207 19.7404 41.41 19.21 41.41C18.6796 41.41 18.1709 41.6207 17.7958 41.9958C17.4207 42.3709 17.21 42.8796 17.21 43.41V47.07H6V34.49H10.1V38.15C10.1 38.6804 10.3107 39.1891 10.6858 39.5642C11.0609 39.9393 11.5696 40.15 12.1 40.15C12.6304 40.15 13.1391 39.9393 13.5142 39.5642C13.8893 39.1891 14.1 38.6804 14.1 38.15V34.49H22.75V38.15C22.75 38.6804 22.9607 39.1891 23.3358 39.5642C23.7109 39.9393 24.2196 40.15 24.75 40.15C25.2804 40.15 25.7891 39.9393 26.1642 39.5642C26.5393 39.1891 26.75 38.6804 26.75 38.15V34.49H46.83V38.15C46.83 38.6804 47.0407 39.1891 47.4158 39.5642C47.7909 39.9393 48.2996 40.15 48.83 40.15C49.3604 40.15 49.8691 39.9393 50.2442 39.5642C50.6193 39.1891 50.83 38.6804 50.83 38.15V34.49H58V47.07H42.13Z" fill="black"/>
</svg>
